# xmcd
#
# Track frame offsets:
# 150
# 17262
# 30890
# 47515
# 61250
# 73312
# 92152
# 108502
# 120038
# 130898
# 146948
# 163800
# 183268
# 198126
# 213090
# 227244
#
# Disc length: 3227 seconds
#
#
# Revision: 0
# Processed by: cddbd v1.5.2PL0 Copyright (c) Steve Scherf et al.
# Submitted via: FreeRIP 2.945 
#
DISCID=d10c9910
DTITLE=懷念台語老歌九 - 懷念台語老歌九
DYEAR=1900
DGENRE=
TTITLE0=01-命運青紅燈
TTITLE1=02-為錢賭生命
TTITLE2=03-彼個小姑娘
TTITLE3=04-難忘的人
TTITLE4=05-我有一句話
TTITLE5=06-黃昏嶺
TTITLE6=07-飄浪之女
TTITLE7=08-6月茉莉
TTITLE8=09-難忘鳳凰橋
TTITLE9=10-愛你入骨
TTITLE10=11-燒肉粽
TTITLE11=12-苦戀歌
TTITLE12=13-落葉時雨
TTITLE13=14-無緣彼個人
TTITLE14=15-四季紅
TTITLE15=16-憶春曲
EXTD=
EXTT0=
EXTT1=
EXTT2=
EXTT3=
EXTT4=
EXTT5=
EXTT6=
EXTT7=
EXTT8=
EXTT9=
EXTT10=
EXTT11=
EXTT12=
EXTT13=
EXTT14=
EXTT15=
PLAYORDER=
